<svg xmlns="http://www.w3.org/2000/svg" xmlns:xlink="http://www.w3.org/1999/xlink" width="500" zoomAndPan="magnify" viewBox="0 0 375 374.999991" height="500" preserveAspectRatio="xMidYMid meet" version="1.0"><defs><g/><clipPath id="e1292de332"><path d="M 106 37.5 L 303.953125 37.5 L 303.953125 224 L 106 224 Z M 106 37.5 " clip-rule="nonzero"/></clipPath><clipPath id="eb597f6bf7"><path d="M 72 37.5 L 270 37.5 L 270 224 L 72 224 Z M 72 37.5 " clip-rule="nonzero"/></clipPath></defs><rect x="-37.5" width="450" fill="#ffffff" y="-37.499999" height="449.999989" fill-opacity="1"/><rect x="-37.5" width="450" fill="#ffffff" y="-37.499999" height="449.999989" fill-opacity="1"/><path fill="#373737" d="M 234.753906 188.394531 L 234.742188 188.332031 C 234.703125 188.144531 234.761719 188.171875 234.554688 187.476562 C 234.472656 187.214844 234.363281 186.953125 234.246094 186.710938 C 234.128906 186.488281 234.054688 186.40625 233.953125 186.246094 C 233.855469 186.109375 233.757812 185.972656 233.65625 185.835938 C 233.554688 185.707031 233.460938 185.625 233.363281 185.519531 C 233.171875 185.328125 232.957031 185.097656 232.777344 184.96875 L 232.207031 184.523438 L 231.660156 184.179688 C 230.941406 183.734375 230.257812 183.425781 229.582031 183.132812 C 228.238281 182.574219 226.941406 182.175781 225.652344 181.832031 C 224.367188 181.484375 223.09375 181.207031 221.835938 180.964844 C 219.308594 180.484375 216.832031 180.117188 214.390625 179.855469 C 209.511719 179.320312 204.808594 179.074219 200.351562 178.992188 C 195.890625 178.910156 191.6875 179.007812 187.808594 179.203125 C 183.9375 179.371094 180.390625 179.671875 177.261719 180.011719 C 174.128906 180.332031 171.410156 180.730469 169.179688 181.09375 C 166.949219 181.445312 165.210938 181.804688 164.027344 182.050781 C 162.84375 182.300781 162.214844 182.453125 162.214844 182.453125 L 162.25 182.691406 C 162.25 182.691406 162.890625 182.664062 164.097656 182.613281 C 165.296875 182.546875 167.066406 182.511719 169.304688 182.449219 C 171.542969 182.398438 174.265625 182.390625 177.378906 182.402344 C 178.933594 182.414062 180.589844 182.441406 182.335938 182.496094 C 184.085938 182.539062 185.902344 182.585938 187.824219 182.667969 C 189.734375 182.746094 191.722656 182.851562 193.773438 182.992188 C 195.832031 183.113281 197.953125 183.261719 200.125 183.449219 C 204.476562 183.804688 209.046875 184.300781 213.710938 185.011719 C 216.035156 185.382812 218.394531 185.78125 220.714844 186.3125 C 221.878906 186.570312 223.027344 186.875 224.15625 187.199219 C 225.28125 187.519531 226.382812 187.890625 227.363281 188.324219 C 227.695312 188.472656 228.019531 188.632812 228.304688 188.789062 C 227.636719 189.152344 226.773438 189.503906 225.898438 189.792969 C 225.332031 189.988281 224.847656 190.128906 224.195312 190.3125 L 222.453125 190.769531 C 220.082031 191.339844 217.628906 191.78125 215.164062 192.148438 C 212.699219 192.527344 210.21875 192.835938 207.746094 193.082031 C 202.804688 193.589844 197.894531 193.898438 193.148438 194.097656 C 188.371094 194.285156 183.789062 194.371094 179.414062 194.335938 C 175.046875 194.296875 170.914062 194.195312 167.109375 193.953125 C 163.308594 193.703125 159.832031 193.394531 156.777344 192.957031 C 153.730469 192.5 151.085938 191.988281 149.035156 191.269531 C 148.019531 190.90625 147.136719 190.5 146.515625 190.019531 C 146.378906 189.890625 146.207031 189.78125 146.113281 189.640625 C 146.058594 189.578125 146.003906 189.511719 145.949219 189.449219 C 145.917969 189.390625 145.882812 189.335938 145.851562 189.277344 C 145.761719 189.195312 145.75 188.972656 145.707031 188.820312 C 145.6875 188.753906 145.695312 188.578125 145.71875 188.46875 C 145.824219 187.96875 146.136719 187.613281 146.328125 187.390625 C 146.53125 187.171875 146.65625 187.066406 146.65625 187.066406 L 146.507812 186.875 C 146.507812 186.875 146.371094 186.957031 146.109375 187.152344 C 145.871094 187.359375 145.449219 187.652344 145.1875 188.316406 C 145.132812 188.496094 145.078125 188.636719 145.085938 188.90625 C 145.109375 189.082031 145.074219 189.226562 145.171875 189.472656 C 145.210938 189.585938 145.246094 189.710938 145.296875 189.820312 C 145.355469 189.917969 145.414062 190.015625 145.472656 190.113281 C 145.582031 190.328125 145.753906 190.480469 145.90625 190.671875 C 146.570312 191.386719 147.476562 191.953125 148.511719 192.484375 C 150.59375 193.53125 153.238281 194.449219 156.316406 195.238281 C 159.394531 196.027344 162.902344 196.757812 166.753906 197.308594 C 170.605469 197.886719 174.792969 198.378906 179.238281 198.691406 C 183.671875 199.011719 188.394531 199.199219 193.234375 199.207031 C 195.679688 199.21875 198.144531 199.183594 200.652344 199.085938 C 203.15625 198.996094 205.695312 198.867188 208.253906 198.652344 C 213.375 198.238281 218.566406 197.601562 223.800781 196.390625 C 224.464844 196.222656 225.101562 196.066406 225.785156 195.878906 C 226.367188 195.710938 227.113281 195.488281 227.757812 195.261719 C 228.421875 195.035156 229.09375 194.777344 229.777344 194.476562 C 230.457031 194.179688 231.15625 193.828125 231.886719 193.355469 C 232.25 193.117188 232.625 192.84375 233.015625 192.484375 C 233.199219 192.328125 233.414062 192.082031 233.601562 191.878906 C 233.804688 191.625 234 191.375 234.183594 191.039062 C 234.273438 190.871094 234.359375 190.699219 234.4375 190.523438 C 234.515625 190.328125 234.585938 190.113281 234.640625 189.90625 C 234.703125 189.703125 234.734375 189.464844 234.757812 189.234375 L 234.78125 188.882812 C 234.792969 188.894531 234.734375 188.0625 234.753906 188.394531 " fill-opacity="1" fill-rule="nonzero"/><path fill="#373737" d="M 261.886719 126.96875 L 261.8125 128.644531 L 261.78125 129.484375 L 261.761719 129.90625 C 261.753906 129.949219 261.75 130 261.746094 130.042969 C 261.648438 130.535156 261.578125 131.035156 261.519531 131.535156 L 261.433594 132.183594 C 261.417969 132.394531 261.375 132.617188 261.3125 132.859375 C 261.199219 133.316406 261.09375 133.773438 260.984375 134.234375 C 260.867188 134.695312 260.804688 135.164062 260.625 135.597656 C 260.472656 136.046875 260.328125 136.492188 260.175781 136.929688 C 260.023438 137.378906 259.90625 137.828125 259.699219 138.25 C 259.507812 138.679688 259.324219 139.101562 259.140625 139.523438 C 258.953125 139.949219 258.78125 140.386719 258.542969 140.777344 C 256.847656 144.046875 254.597656 146.917969 252.070312 149.265625 C 249.554688 151.636719 246.714844 153.402344 243.917969 154.699219 C 243.566406 154.867188 243.21875 155.03125 242.867188 155.1875 C 242.523438 155.347656 242.171875 155.453125 241.820312 155.589844 C 241.121094 155.828125 240.441406 156.125 239.753906 156.320312 C 238.363281 156.652344 237.046875 157.101562 235.761719 157.238281 C 235.445312 157.296875 235.125 157.355469 234.816406 157.40625 C 234.921875 157.039062 235.039062 156.671875 235.164062 156.304688 C 235.371094 155.664062 235.59375 155.019531 235.828125 154.378906 C 235.976562 153.988281 236.132812 153.574219 236.289062 153.195312 C 236.488281 153.058594 236.6875 152.921875 236.882812 152.785156 C 237.742188 152.167969 238.53125 151.496094 239.265625 150.8125 C 239.988281 150.101562 240.636719 149.367188 241.207031 148.609375 C 242.320312 147.085938 243.082031 145.464844 243.40625 143.9375 C 243.441406 143.746094 243.476562 143.5625 243.519531 143.375 C 243.539062 143.191406 243.5625 143.011719 243.585938 142.828125 C 243.640625 142.484375 243.636719 142.097656 243.644531 141.761719 C 243.648438 141.414062 243.605469 141.15625 243.589844 140.875 C 243.570312 140.515625 243.523438 140.273438 243.46875 140 C 243.253906 138.9375 242.902344 138.175781 242.660156 137.679688 C 242.535156 137.429688 242.417969 137.238281 242.347656 137.117188 C 242.273438 137 242.234375 136.941406 242.234375 136.941406 L 241.785156 137.125 C 241.785156 137.125 241.855469 137.410156 241.941406 137.917969 C 242.035156 138.425781 242.113281 139.179688 242.058594 140.105469 C 242.046875 140.328125 242.019531 140.605469 241.980469 140.800781 C 241.933594 141.0625 241.898438 141.382812 241.824219 141.636719 C 241.6875 142.117188 241.53125 142.691406 241.257812 143.238281 C 241.003906 143.804688 240.671875 144.371094 240.261719 144.929688 C 239.871094 145.496094 239.363281 146.03125 238.828125 146.566406 C 237.730469 147.632812 236.355469 148.621094 234.78125 149.484375 C 234.285156 149.753906 233.773438 150.015625 233.242188 150.265625 C 232.929688 150.417969 232.605469 150.558594 232.28125 150.691406 C 232 150.8125 231.710938 150.933594 231.417969 151.046875 C 230.8125 151.285156 230.183594 151.507812 229.539062 151.714844 C 227.648438 152.34375 225.632812 152.828125 223.550781 153.183594 C 222.511719 153.359375 221.453125 153.511719 220.390625 153.625 C 219.851562 153.671875 219.324219 153.730469 218.78125 153.761719 C 218.246094 153.804688 217.710938 153.835938 217.171875 153.855469 C 216.628906 153.890625 216.089844 153.890625 215.554688 153.90625 L 215.386719 153.910156 L 215.175781 153.90625 L 214.75 153.90625 L 213.90625 153.894531 C 212.871094 153.875 211.796875 153.835938 210.738281 153.742188 C 208.617188 153.585938 206.550781 153.277344 204.578125 152.855469 C 203.589844 152.648438 202.636719 152.398438 201.703125 152.140625 C 200.777344 151.855469 199.875 151.566406 199.019531 151.234375 C 197.296875 150.59375 195.746094 149.816406 194.390625 148.980469 C 193.039062 148.144531 191.921875 147.222656 191.027344 146.292969 C 190.136719 145.367188 189.515625 144.421875 189.089844 143.589844 C 188.664062 142.757812 188.464844 142.027344 188.328125 141.527344 C 188.222656 141.019531 188.171875 140.746094 188.171875 140.746094 L 187.683594 140.746094 C 187.683594 140.746094 187.644531 141.035156 187.59375 141.597656 C 187.601562 142.144531 187.570312 142.992188 187.820312 144.035156 C 188.058594 145.074219 188.515625 146.324219 189.320312 147.59375 C 189.992188 148.664062 190.886719 149.761719 191.976562 150.804688 C 190.664062 150.691406 189.34375 150.613281 188.023438 150.570312 C 185.523438 150.480469 183.011719 150.511719 180.511719 150.636719 C 179.957031 150.667969 179.398438 150.695312 178.847656 150.75 C 178.835938 150.738281 178.820312 150.75 178.804688 150.75 L 178.78125 150.75 C 178.550781 150.753906 178.265625 150.765625 177.925781 150.777344 C 177.429688 150.808594 176.835938 150.785156 176.152344 150.765625 C 175.457031 150.777344 174.691406 150.71875 173.851562 150.652344 C 173.421875 150.632812 172.988281 150.582031 172.550781 150.515625 C 172.101562 150.457031 171.625 150.414062 171.15625 150.328125 C 170.683594 150.242188 170.191406 150.152344 169.695312 150.0625 C 169.210938 149.945312 168.703125 149.820312 168.195312 149.699219 C 168.148438 149.683594 168.09375 149.671875 168.046875 149.65625 C 167.582031 149.527344 167.132812 149.378906 166.667969 149.242188 C 166.5625 149.207031 166.457031 149.175781 166.355469 149.132812 C 165.941406 148.996094 165.535156 148.835938 165.117188 148.683594 C 164.605469 148.480469 164.097656 148.242188 163.574219 148.027344 C 163.082031 147.769531 162.566406 147.527344 162.074219 147.246094 C 161.09375 146.6875 160.117188 146.078125 159.230469 145.390625 C 158.320312 144.71875 157.480469 143.980469 156.703125 143.207031 C 155.917969 142.457031 155.234375 141.636719 154.59375 140.847656 C 153.976562 140.042969 153.414062 139.253906 152.949219 138.496094 C 152.007812 136.96875 151.363281 135.59375 150.972656 134.609375 C 150.582031 133.621094 150.433594 133.054688 150.433594 133.054688 C 150.386719 132.886719 150.238281 132.769531 150.0625 132.78125 C 149.863281 132.792969 149.707031 132.957031 149.714844 133.160156 L 149.71875 133.167969 C 149.71875 133.167969 149.75 133.8125 149.953125 134.90625 C 150.148438 135.988281 150.519531 137.542969 151.183594 139.351562 C 151.507812 140.253906 151.929688 141.210938 152.421875 142.214844 C 152.933594 143.199219 153.5 144.242188 154.191406 145.253906 C 154.878906 146.285156 155.652344 147.304688 156.519531 148.28125 C 157.378906 149.269531 158.347656 150.1875 159.351562 151.082031 C 159.859375 151.519531 160.402344 151.917969 160.921875 152.34375 C 161.445312 152.710938 161.945312 153.085938 162.46875 153.433594 C 162.273438 153.480469 162.074219 153.527344 161.878906 153.578125 C 160.660156 153.925781 159.429688 154.238281 158.230469 154.617188 C 157.023438 154.996094 155.808594 155.371094 154.613281 155.796875 C 153.414062 156.199219 152.242188 156.652344 151.050781 157.105469 C 150.121094 157.449219 149.207031 157.847656 148.292969 158.238281 C 148.058594 158.136719 147.828125 158.042969 147.589844 157.953125 L 146.457031 157.371094 C 145.675781 157.023438 144.976562 156.515625 144.222656 156.082031 C 142.789062 155.105469 141.355469 154.035156 140.105469 152.769531 C 138.820312 151.550781 137.667969 150.183594 136.621094 148.777344 C 135.5625 147.386719 134.679688 145.914062 133.867188 144.488281 C 133.089844 143.039062 132.390625 141.636719 131.839844 140.289062 C 130.6875 137.605469 130.003906 135.238281 129.5625 133.5625 C 129.136719 131.886719 128.980469 130.917969 128.980469 130.917969 C 128.960938 130.757812 128.824219 130.628906 128.648438 130.613281 C 128.453125 130.597656 128.273438 130.753906 128.261719 130.949219 L 128.261719 130.957031 C 128.261719 130.957031 128.183594 131.972656 128.214844 133.75 C 128.261719 135.527344 128.390625 138.082031 128.917969 141.128906 C 129.15625 142.664062 129.546875 144.308594 130.011719 146.046875 C 130.515625 147.773438 131.101562 149.601562 131.910156 151.441406 C 132.707031 153.28125 133.648438 155.160156 134.832031 156.980469 C 135.96875 158.828125 137.386719 160.566406 138.914062 162.238281 C 139.722656 163.03125 140.488281 163.882812 141.378906 164.589844 L 142.683594 165.699219 C 142.753906 165.746094 142.820312 165.792969 142.890625 165.84375 C 142.847656 165.835938 142.808594 165.820312 142.761719 165.804688 C 140.023438 164.933594 136.785156 163.601562 133.433594 161.535156 C 130.058594 159.511719 126.613281 156.710938 123.5 153.144531 C 120.402344 149.582031 117.695312 145.191406 115.910156 140.195312 C 115.027344 137.699219 114.355469 135.066406 113.972656 132.332031 L 113.828125 131.308594 L 113.730469 130.265625 L 113.644531 129.230469 L 113.609375 128.183594 C 113.566406 127.480469 113.582031 126.777344 113.582031 126.070312 L 113.589844 125.542969 L 113.589844 125.460938 L 113.59375 125.386719 L 113.609375 125.09375 L 113.675781 123.902344 C 113.878906 121.199219 114.449219 118.398438 115.367188 115.695312 C 116.285156 112.992188 117.574219 110.386719 119.148438 107.925781 C 122.347656 103.019531 126.796875 98.796875 131.949219 95.703125 C 137.101562 92.617188 142.925781 90.636719 148.773438 90.070312 L 149.867188 89.964844 L 150.957031 89.917969 C 151.691406 89.859375 152.421875 89.886719 153.140625 89.886719 L 153.550781 89.886719 C 153.546875 89.886719 153.53125 89.878906 153.527344 89.878906 L 153.621094 89.886719 C 153.625 89.886719 153.625 89.886719 153.625 89.886719 L 154.148438 89.921875 L 155.375 90.007812 C 156.265625 90.035156 156.851562 90.152344 157.53125 90.222656 C 157.863281 90.277344 158.1875 90.292969 158.535156 90.355469 L 159.597656 90.558594 L 160.667969 90.753906 L 161.71875 91.011719 C 162.421875 91.1875 163.121094 91.355469 163.8125 91.585938 C 164.511719 91.808594 165.203125 91.988281 165.890625 92.253906 C 168.644531 93.183594 171.335938 94.355469 173.960938 95.660156 C 176.59375 96.941406 179.160156 98.335938 181.691406 99.742188 C 184.234375 101.117188 186.734375 102.515625 189.222656 103.804688 C 191.71875 105.089844 194.199219 106.285156 196.660156 107.308594 C 199.140625 108.304688 201.589844 109.136719 203.976562 109.75 C 204.585938 109.894531 205.183594 110.011719 205.769531 110.140625 C 206.066406 110.199219 206.363281 110.257812 206.652344 110.320312 C 206.949219 110.363281 207.238281 110.40625 207.523438 110.453125 C 208.109375 110.53125 208.683594 110.613281 209.246094 110.691406 C 209.820312 110.734375 210.378906 110.777344 210.921875 110.8125 C 211.199219 110.835938 211.472656 110.851562 211.753906 110.871094 L 212.550781 110.871094 C 213.085938 110.867188 213.613281 110.867188 214.128906 110.855469 C 215.152344 110.824219 216.140625 110.710938 217.078125 110.628906 C 218.003906 110.464844 218.898438 110.304688 219.746094 110.15625 C 220.582031 109.945312 221.375 109.746094 222.125 109.550781 C 225.089844 108.671875 227.253906 107.636719 228.691406 106.890625 C 230.105469 106.109375 230.867188 105.699219 230.867188 105.699219 C 231.003906 105.617188 231.085938 105.445312 231.042969 105.285156 C 230.984375 105.089844 230.789062 104.972656 230.59375 105.03125 L 230.5625 105.042969 C 230.5625 105.042969 229.753906 105.265625 228.230469 105.691406 C 226.71875 106.109375 224.445312 106.574219 221.601562 106.90625 C 218.761719 107.210938 215.289062 107.140625 211.519531 106.304688 C 211.050781 106.195312 210.570312 106.089844 210.085938 105.980469 C 210.03125 105.960938 209.976562 105.949219 209.917969 105.929688 C 210.03125 105.824219 210.152344 105.726562 210.265625 105.617188 C 210.535156 105.375 210.875 105.121094 211.207031 104.851562 C 211.546875 104.59375 211.886719 104.285156 212.28125 104.011719 C 213.816406 102.855469 215.777344 101.597656 218.144531 100.480469 C 219.332031 99.941406 220.609375 99.410156 221.980469 98.964844 C 222.667969 98.753906 223.367188 98.53125 224.105469 98.367188 C 224.832031 98.15625 225.585938 98.035156 226.355469 97.882812 C 227.898438 97.628906 229.5 97.4375 231.164062 97.425781 C 232 97.390625 232.839844 97.4375 233.695312 97.476562 C 234.570312 97.570312 235.46875 97.664062 236.363281 97.765625 L 237.09375 97.84375 L 237.707031 97.992188 C 238.105469 98.078125 238.511719 98.171875 238.925781 98.265625 C 239.722656 98.402344 240.589844 98.722656 241.445312 98.980469 C 241.875 99.132812 242.324219 99.230469 242.742188 99.414062 C 243.152344 99.59375 243.582031 99.777344 244 99.957031 C 244.421875 100.148438 244.851562 100.296875 245.261719 100.519531 C 245.667969 100.734375 246.070312 100.957031 246.488281 101.175781 C 246.890625 101.40625 247.320312 101.597656 247.710938 101.84375 C 248.101562 102.109375 248.492188 102.367188 248.878906 102.636719 C 249.265625 102.902344 249.683594 103.128906 250.046875 103.441406 L 251.140625 104.339844 C 251.910156 104.894531 252.574219 105.597656 253.261719 106.253906 C 253.996094 106.886719 254.554688 107.671875 255.199219 108.386719 L 255.671875 108.9375 L 256.082031 109.535156 L 256.929688 110.707031 C 257.230469 111.089844 257.457031 111.515625 257.703125 111.933594 L 258.433594 113.195312 C 258.894531 114.042969 259.25 114.953125 259.671875 115.824219 L 260.667969 118.554688 C 260.882812 119.507812 261.148438 120.429688 261.34375 121.382812 C 261.46875 122.34375 261.648438 123.300781 261.746094 124.253906 L 261.824219 125.710938 L 261.871094 126.429688 L 261.898438 126.757812 Z M 271.277344 126.773438 L 271.261719 126.296875 L 271.21875 125.332031 L 271.128906 123.398438 C 271.011719 122.109375 270.757812 120.835938 270.566406 119.554688 C 270.292969 118.289062 269.929688 117.042969 269.605469 115.785156 C 269.160156 114.570312 268.726562 113.34375 268.238281 112.144531 C 267.652344 110.992188 267.125 109.808594 266.472656 108.699219 L 265.457031 107.054688 C 265.113281 106.515625 264.789062 105.960938 264.378906 105.476562 L 263.214844 103.953125 L 262.617188 103.199219 L 261.96875 102.503906 C 261.078125 101.601562 260.261719 100.628906 259.285156 99.84375 C 258.335938 99.023438 257.421875 98.175781 256.378906 97.496094 C 255.871094 97.140625 255.367188 96.789062 254.867188 96.4375 C 254.371094 96.089844 253.8125 95.820312 253.28125 95.507812 C 252.757812 95.210938 252.230469 94.917969 251.695312 94.617188 C 251.171875 94.324219 250.605469 94.113281 250.066406 93.859375 C 249.515625 93.621094 248.972656 93.378906 248.433594 93.152344 C 247.878906 92.925781 247.3125 92.773438 246.757812 92.585938 C 246.199219 92.402344 245.648438 92.230469 245.097656 92.058594 C 244.546875 91.878906 243.972656 91.792969 243.414062 91.65625 C 242.292969 91.429688 241.222656 91.160156 240.027344 91.078125 C 239.453125 91.023438 238.871094 90.964844 238.300781 90.90625 L 237.449219 90.832031 L 236.714844 90.832031 C 236.234375 90.835938 235.746094 90.835938 235.265625 90.847656 L 234.546875 90.847656 L 234.1875 90.851562 L 233.933594 90.851562 L 233.832031 90.863281 L 233.636719 90.875 C 232.597656 90.96875 231.582031 91.046875 230.59375 91.234375 C 229.59375 91.359375 228.632812 91.585938 227.691406 91.792969 C 226.761719 92.042969 225.851562 92.300781 224.972656 92.597656 C 221.472656 93.792969 218.519531 95.433594 216.152344 97.171875 C 213.777344 98.910156 211.984375 100.726562 210.671875 102.308594 C 209.660156 103.519531 208.910156 104.621094 208.359375 105.476562 C 208.207031 105.421875 208.046875 105.375 207.886719 105.328125 C 207.640625 105.242188 207.398438 105.148438 207.148438 105.0625 C 206.652344 104.871094 206.152344 104.691406 205.648438 104.503906 C 203.628906 103.683594 201.550781 102.679688 199.441406 101.5 C 195.195312 99.125 190.78125 96.0625 185.902344 92.785156 C 183.445312 91.164062 180.882812 89.496094 178.125 87.878906 C 175.363281 86.28125 172.398438 84.753906 169.203125 83.449219 C 168.421875 83.09375 167.585938 82.820312 166.765625 82.523438 C 165.949219 82.222656 165.097656 81.96875 164.242188 81.722656 L 162.957031 81.34375 L 161.640625 81.035156 L 160.3125 80.722656 C 159.863281 80.628906 159.375 80.558594 158.90625 80.476562 C 157.964844 80.324219 156.929688 80.136719 156.179688 80.085938 L 154.953125 79.972656 L 154.335938 79.914062 L 153.996094 79.890625 L 153.820312 79.882812 L 153.472656 79.875 C 152.546875 79.839844 151.621094 79.800781 150.691406 79.832031 L 149.296875 79.871094 L 147.902344 79.960938 C 146.035156 80.085938 144.175781 80.351562 142.328125 80.710938 C 140.496094 81.097656 138.664062 81.550781 136.878906 82.148438 C 133.304688 83.320312 129.820312 84.863281 126.613281 86.851562 C 123.398438 88.828125 120.375 91.136719 117.691406 93.785156 C 115.019531 96.453125 112.65625 99.425781 110.691406 102.621094 C 108.734375 105.824219 107.25 109.285156 106.199219 112.828125 C 105.136719 116.367188 104.617188 119.996094 104.566406 123.632812 L 104.566406 125.410156 L 104.570312 125.574219 L 104.601562 126.230469 C 104.644531 127.09375 104.679688 127.957031 104.78125 128.824219 L 104.925781 130.101562 L 105.121094 131.367188 L 105.332031 132.617188 L 105.589844 133.863281 C 106.300781 137.15625 107.351562 140.289062 108.691406 143.175781 C 111.347656 148.980469 115.078125 153.792969 119.113281 157.464844 C 121.132812 159.292969 123.214844 160.871094 125.300781 162.179688 C 127.386719 163.5 129.453125 164.578125 131.472656 165.402344 C 132.460938 165.851562 133.460938 166.175781 134.40625 166.535156 C 135.378906 166.835938 136.292969 167.136719 137.207031 167.347656 C 137.660156 167.464844 138.101562 167.570312 138.535156 167.679688 C 138.96875 167.765625 139.402344 167.855469 139.8125 167.933594 C 140.648438 168.113281 141.457031 168.214844 142.207031 168.332031 C 142.738281 168.40625 143.25 168.464844 143.734375 168.507812 C 143.75 168.578125 143.757812 168.644531 143.773438 168.71875 C 144.09375 170.625 144.34375 172.554688 144.484375 174.484375 C 144.640625 176.417969 144.683594 178.355469 144.566406 180.296875 C 144.460938 182.230469 144.175781 184.160156 143.613281 186.035156 L 143.613281 186.039062 C 143.5625 186.199219 143.632812 186.382812 143.789062 186.46875 C 143.957031 186.5625 144.183594 186.5 144.273438 186.324219 C 145.257812 184.539062 145.976562 182.597656 146.515625 180.621094 C 147.0625 178.648438 147.445312 176.617188 147.714844 174.582031 C 147.957031 172.8125 148.117188 171.027344 148.203125 169.230469 C 148.21875 169.042969 148.222656 168.855469 148.234375 168.664062 C 148.238281 168.59375 148.246094 168.515625 148.246094 168.441406 C 148.261719 168.03125 148.277344 167.609375 148.28125 167.199219 C 148.296875 166.582031 148.308594 165.96875 148.308594 165.351562 L 148.296875 164.316406 C 148.824219 164.019531 149.355469 163.734375 149.882812 163.4375 C 150.949219 162.898438 152.007812 162.304688 153.097656 161.800781 C 154.179688 161.269531 155.269531 160.742188 156.375 160.273438 C 156.394531 160.257812 156.421875 160.246094 156.449219 160.234375 C 157.527344 159.742188 158.617188 159.300781 159.714844 158.859375 C 160.832031 158.390625 161.972656 158 163.109375 157.570312 C 164.25 157.1875 165.390625 156.769531 166.550781 156.429688 C 166.851562 156.324219 167.164062 156.234375 167.476562 156.144531 C 168.328125 155.886719 169.183594 155.648438 170.039062 155.414062 C 171.214844 155.097656 172.390625 154.808594 173.578125 154.539062 L 175.351562 154.15625 L 177.148438 153.808594 C 178.347656 153.597656 179.550781 153.390625 180.753906 153.238281 C 181.675781 153.105469 182.59375 152.992188 183.519531 152.90625 C 185.027344 152.738281 186.527344 152.621094 188.039062 152.542969 C 190.019531 152.441406 192.007812 152.417969 193.992188 152.476562 C 195.042969 153.261719 196.210938 154 197.472656 154.648438 C 199.304688 155.613281 201.335938 156.4375 203.492188 157.070312 C 205.644531 157.726562 207.925781 158.1875 210.253906 158.472656 C 211.421875 158.617188 212.59375 158.703125 213.824219 158.765625 C 214.117188 158.78125 214.394531 158.785156 214.675781 158.792969 L 215.101562 158.800781 L 215.316406 158.804688 L 215.574219 158.804688 C 216.167969 158.792969 216.765625 158.800781 217.363281 158.769531 C 218.554688 158.742188 219.746094 158.636719 220.929688 158.5 C 222.117188 158.359375 223.289062 158.1875 224.445312 157.941406 C 225.601562 157.707031 226.742188 157.417969 227.859375 157.085938 C 228.429688 156.90625 228.992188 156.726562 229.550781 156.53125 C 229.496094 156.960938 229.441406 157.386719 229.394531 157.808594 C 229.335938 158.371094 229.277344 158.917969 229.234375 159.472656 C 229.203125 159.839844 229.175781 160.199219 229.15625 160.550781 C 228.976562 163.15625 228.964844 165.777344 229.15625 168.378906 C 229.21875 169.113281 229.277344 169.851562 229.378906 170.59375 C 229.457031 171.328125 229.589844 172.0625 229.710938 172.792969 C 229.859375 173.519531 229.984375 174.25 230.175781 174.96875 C 230.339844 175.691406 230.5625 176.402344 230.765625 177.109375 C 231.011719 177.8125 231.238281 178.515625 231.523438 179.195312 C 231.789062 179.882812 232.121094 180.550781 232.429688 181.214844 C 232.78125 181.859375 233.109375 182.511719 233.511719 183.128906 C 233.882812 183.757812 234.332031 184.34375 234.753906 184.929688 C 234.851562 185.074219 235.039062 185.125 235.207031 185.042969 C 235.386719 184.957031 235.457031 184.738281 235.371094 184.566406 L 235.359375 184.539062 C 235.050781 183.898438 234.714844 183.28125 234.460938 182.632812 C 234.171875 181.996094 233.960938 181.332031 233.734375 180.679688 C 233.546875 180.003906 233.335938 179.34375 233.203125 178.667969 C 233.035156 177.996094 232.933594 177.304688 232.8125 176.628906 C 232.734375 175.941406 232.632812 175.257812 232.585938 174.570312 C 232.523438 173.890625 232.507812 173.199219 232.480469 172.511719 C 232.480469 171.824219 232.46875 171.132812 232.507812 170.445312 C 232.523438 169.757812 232.582031 169.070312 232.632812 168.382812 C 232.835938 166.046875 233.214844 163.71875 233.746094 161.429688 C 233.785156 161.433594 233.832031 161.433594 233.871094 161.445312 C 234.5625 161.488281 235.28125 161.53125 236.023438 161.574219 C 237.507812 161.699219 239.078125 161.550781 240.757812 161.445312 C 241.59375 161.367188 242.4375 161.183594 243.3125 161.042969 C 243.746094 160.96875 244.195312 160.902344 244.644531 160.804688 C 245.078125 160.683594 245.515625 160.550781 245.964844 160.429688 C 249.554688 159.449219 253.367188 157.777344 256.859375 155.183594 C 260.375 152.621094 263.621094 149.207031 266.125 145.089844 C 266.472656 144.585938 266.742188 144.046875 267.019531 143.503906 C 267.300781 142.960938 267.582031 142.417969 267.859375 141.875 C 268.15625 141.332031 268.367188 140.75 268.601562 140.179688 C 268.824219 139.605469 269.046875 139.023438 269.273438 138.445312 C 269.515625 137.867188 269.648438 137.25 269.828125 136.648438 C 269.996094 136.042969 270.15625 135.433594 270.320312 134.828125 C 270.503906 134.238281 270.582031 133.53125 270.699219 132.878906 C 270.816406 132.214844 270.925781 131.539062 271.023438 130.875 L 271.085938 130.371094 L 271.105469 129.953125 L 271.160156 129.113281 L 271.253906 127.4375 L 271.265625 127.226562 L 271.265625 127.125 L 271.28125 126.835938 L 271.277344 126.773438 " fill-opacity="1" fill-rule="nonzero"/><g clip-path="url(#e1292de332)"><path fill="#373737" d="M 303.046875 62.761719 L 302.757812 62.449219 C 301.949219 61.582031 300.597656 61.523438 299.714844 62.320312 L 261.765625 96.757812 C 261.785156 96.773438 261.804688 96.789062 261.824219 96.804688 C 262.699219 97.519531 263.425781 98.292969 264.074219 98.976562 C 264.320312 99.238281 264.550781 99.488281 264.78125 99.71875 L 264.824219 99.761719 L 264.867188 99.808594 L 265.515625 100.507812 L 265.625 100.621094 L 265.71875 100.742188 L 266.214844 101.367188 C 283.484375 88.273438 298.765625 70.78125 303.113281 65.640625 C 303.824219 64.800781 303.796875 63.566406 303.046875 62.761719 Z M 295.449219 54.59375 C 295.046875 54.160156 294.507812 53.925781 293.957031 53.90625 C 293.40625 53.878906 292.851562 54.066406 292.410156 54.464844 L 252.554688 90.632812 C 252.886719 90.78125 253.242188 90.953125 253.628906 91.164062 L 254.109375 91.429688 C 254.480469 91.636719 254.855469 91.847656 255.226562 92.058594 L 255.257812 92.078125 L 255.289062 92.09375 C 255.417969 92.171875 255.570312 92.253906 255.726562 92.339844 C 256.15625 92.578125 256.640625 92.84375 257.148438 93.203125 C 257.34375 93.339844 257.542969 93.480469 257.738281 93.621094 L 295.363281 57.640625 C 296.222656 56.816406 296.257812 55.464844 295.449219 54.59375 Z M 288.148438 46.738281 C 287.742188 46.304688 287.203125 46.070312 286.652344 46.050781 C 286.101562 46.027344 285.542969 46.210938 285.105469 46.609375 L 244.296875 83.640625 C 243.792969 84.09375 243.160156 84.308594 242.53125 84.277344 C 241.910156 84.25 241.289062 83.984375 240.828125 83.492188 C 239.90625 82.5 239.949219 80.949219 240.925781 80.011719 L 280.75 41.929688 C 281.609375 41.109375 281.648438 39.753906 280.839844 38.882812 L 280.550781 38.570312 C 279.804688 37.769531 278.570312 37.648438 277.6875 38.300781 C 270.625 43.460938 241.457031 65.558594 228.222656 87.625 C 228.777344 87.507812 229.367188 87.402344 229.980469 87.320312 C 231.015625 87.132812 232.007812 87.042969 232.964844 86.960938 L 233.28125 86.933594 L 233.3125 86.929688 L 233.339844 86.929688 L 233.496094 86.917969 L 233.558594 86.910156 L 233.746094 86.890625 L 234.160156 86.890625 L 234.492188 86.886719 L 235.222656 86.886719 C 235.550781 86.882812 235.875 86.878906 236.199219 86.875 C 236.359375 86.875 236.515625 86.875 236.675781 86.875 L 237.617188 86.875 L 237.785156 86.886719 L 238.636719 86.960938 L 238.671875 86.964844 L 238.707031 86.964844 C 239.25 87.023438 239.804688 87.082031 240.351562 87.128906 C 241.578125 87.21875 242.652344 87.445312 243.605469 87.652344 C 243.804688 87.695312 244.003906 87.734375 244.207031 87.777344 L 244.285156 87.792969 L 244.359375 87.8125 C 244.492188 87.84375 244.65625 87.878906 244.828125 87.914062 C 245.238281 88 245.746094 88.109375 246.296875 88.28125 C 246.703125 88.410156 247.132812 88.546875 247.65625 88.714844 C 247.78125 88.402344 247.976562 88.113281 248.230469 87.871094 L 288.054688 49.785156 C 288.914062 48.964844 288.957031 47.609375 288.148438 46.738281 Z M 146.738281 196.023438 L 146.726562 196.015625 L 146.710938 196.007812 C 146.378906 195.839844 146.066406 195.671875 145.773438 195.5 L 145.679688 195.617188 C 145.402344 195.953125 145.144531 196.285156 144.882812 196.617188 C 143.851562 197.949219 142.839844 199.316406 141.859375 200.664062 C 140.871094 202.011719 139.90625 203.351562 138.9375 204.65625 C 138.457031 205.308594 137.96875 205.953125 137.484375 206.585938 C 136.992188 207.210938 136.5 207.828125 136 208.421875 C 135.503906 209.027344 134.988281 209.601562 134.488281 210.171875 C 133.96875 210.730469 133.472656 211.289062 132.945312 211.808594 C 132.4375 212.339844 131.898438 212.828125 131.382812 213.320312 C 130.851562 213.804688 130.3125 214.246094 129.785156 214.679688 C 127.648438 216.382812 125.574219 217.78125 123.59375 218.796875 C 122.609375 219.308594 121.644531 219.726562 120.730469 220.035156 C 119.8125 220.347656 118.933594 220.539062 118.128906 220.609375 C 117.320312 220.675781 116.585938 220.621094 115.976562 220.445312 C 115.367188 220.277344 114.898438 220.011719 114.554688 219.753906 C 114.210938 219.5 113.992188 219.253906 113.851562 219.089844 C 113.734375 218.941406 113.664062 218.855469 113.652344 218.835938 C 113.667969 218.851562 113.746094 218.929688 113.882812 219.058594 C 114.042969 219.207031 114.289062 219.414062 114.644531 219.621094 C 115 219.832031 115.472656 220.023438 116.050781 220.117188 C 116.628906 220.207031 117.3125 220.199219 118.054688 220.0625 C 118.796875 219.925781 119.601562 219.65625 120.445312 219.289062 C 121.285156 218.921875 122.167969 218.453125 123.074219 217.882812 C 124.878906 216.738281 126.816406 215.269531 128.769531 213.488281 C 130.703125 211.714844 132.613281 209.601562 134.433594 207.179688 C 136.269531 204.765625 138.078125 202.101562 139.976562 199.328125 C 141.15625 197.601562 142.425781 195.835938 143.78125 194.113281 C 143.507812 193.875 143.25 193.628906 143.011719 193.375 L 142.910156 193.261719 L 142.832031 193.164062 L 142.792969 193.121094 C 142.625 192.933594 142.320312 192.582031 142.039062 192.085938 L 141.902344 191.859375 L 141.78125 191.652344 L 141.679688 191.433594 C 141.5625 191.167969 141.484375 190.925781 141.433594 190.777344 C 141.246094 190.25 141.179688 189.800781 141.15625 189.4375 C 140.082031 188.523438 139.523438 187.152344 139.65625 185.753906 L 139.65625 185.449219 L 139.824219 184.890625 C 140.257812 183.453125 140.515625 181.878906 140.617188 180.078125 L 140.617188 180.058594 C 140.621094 180.027344 140.621094 179.992188 140.621094 179.960938 C 137.140625 182.5625 133.996094 184.734375 131.328125 186.34375 C 119.316406 193.585938 112.625 200.304688 108.902344 205.359375 C 105.566406 209.894531 105.902344 216.152344 109.738281 220.277344 C 111.65625 222.339844 114.171875 223.566406 116.792969 223.898438 C 119.425781 224.238281 122.167969 223.683594 124.546875 222.179688 C 129.851562 218.824219 137.023438 212.621094 145.097656 201.152344 C 146.042969 199.8125 147.148438 198.355469 148.402344 196.792969 C 147.816406 196.542969 147.261719 196.285156 146.738281 196.023438 " fill-opacity="1" fill-rule="nonzero"/></g><g clip-path="url(#eb597f6bf7)"><path fill="#373737" d="M 266.722656 204.9375 C 262.914062 199.765625 256.066406 192.890625 243.785156 185.488281 C 242.191406 184.527344 240.433594 183.371094 238.539062 182.042969 C 238.566406 182.097656 238.59375 182.152344 238.621094 182.207031 C 238.71875 182.402344 238.816406 182.597656 238.910156 182.796875 C 239.417969 183.8125 239.503906 185.007812 239.144531 186.085938 C 239.007812 186.488281 238.816406 186.867188 238.574219 187.210938 C 238.601562 187.359375 238.625 187.496094 238.644531 187.636719 C 238.671875 187.792969 238.691406 187.949219 238.699219 188.113281 C 238.707031 188.167969 238.710938 188.238281 238.714844 188.316406 C 238.734375 188.621094 238.742188 188.792969 238.738281 188.984375 L 238.632812 192.894531 L 237.683594 192.882812 C 237.675781 192.894531 237.671875 192.910156 237.660156 192.925781 L 237.652344 192.945312 C 237.308594 193.578125 236.945312 194.03125 236.707031 194.332031 L 236.621094 194.445312 L 236.527344 194.546875 L 236.445312 194.636719 C 236.242188 194.863281 235.964844 195.167969 235.632812 195.457031 C 235.148438 195.894531 234.625 196.296875 234.039062 196.675781 C 233.867188 196.785156 233.695312 196.894531 233.515625 197 C 233.8125 197.421875 234.105469 197.84375 234.386719 198.261719 C 236.328125 201.105469 238.183594 203.824219 240.054688 206.292969 C 241.917969 208.769531 243.875 210.933594 245.851562 212.746094 C 247.84375 214.566406 249.828125 216.074219 251.675781 217.242188 C 252.605469 217.820312 253.503906 218.304688 254.367188 218.679688 C 255.226562 219.054688 256.046875 219.328125 256.8125 219.46875 C 257.570312 219.609375 258.265625 219.617188 258.855469 219.523438 C 259.453125 219.429688 259.9375 219.230469 260.296875 219.019531 C 260.660156 218.808594 260.910156 218.589844 261.074219 218.445312 C 261.234375 218.289062 261.3125 218.210938 261.3125 218.210938 C 261.3125 218.210938 261.246094 218.296875 261.105469 218.472656 C 260.960938 218.644531 260.738281 218.894531 260.386719 219.15625 C 260.039062 219.417969 259.554688 219.691406 258.933594 219.863281 C 258.3125 220.042969 257.558594 220.097656 256.734375 220.027344 C 255.910156 219.953125 255.011719 219.757812 254.070312 219.445312 C 253.132812 219.125 252.15625 218.699219 251.144531 218.175781 C 249.117188 217.136719 246.996094 215.703125 244.8125 213.964844 C 244.273438 213.527344 243.722656 213.070312 243.175781 212.574219 C 242.652344 212.070312 242.097656 211.574219 241.578125 211.027344 C 241.039062 210.496094 240.527344 209.925781 240 209.355469 C 239.488281 208.769531 238.964844 208.183594 238.457031 207.566406 C 237.941406 206.957031 237.441406 206.324219 236.9375 205.683594 C 236.441406 205.035156 235.941406 204.378906 235.449219 203.714844 C 234.460938 202.378906 233.472656 201.007812 232.464844 199.625 C 232.097656 199.121094 231.726562 198.617188 231.351562 198.109375 C 230.621094 198.429688 229.871094 198.722656 229.054688 199.003906 C 228.921875 199.046875 228.777344 199.097656 228.628906 199.148438 C 229.007812 199.65625 229.363281 200.152344 229.703125 200.628906 C 237.957031 212.359375 245.296875 218.707031 250.722656 222.136719 C 253.15625 223.671875 255.957031 224.242188 258.648438 223.898438 C 261.332031 223.554688 263.90625 222.300781 265.867188 220.191406 C 269.789062 215.972656 270.132812 209.570312 266.722656 204.9375 Z M 101.300781 99.550781 C 100.90625 99.320312 100.328125 98.988281 99.617188 98.527344 C 98.898438 98.070312 98.035156 97.511719 97.070312 96.828125 C 96.585938 96.488281 96.078125 96.117188 95.546875 95.722656 C 95.410156 95.625 95.277344 95.523438 95.140625 95.421875 C 95.007812 95.3125 94.871094 95.207031 94.726562 95.097656 C 94.457031 94.886719 94.179688 94.664062 93.894531 94.441406 C 93.609375 94.214844 93.324219 93.984375 93.03125 93.75 C 92.742188 93.503906 92.441406 93.25 92.140625 92.992188 C 91.84375 92.730469 91.539062 92.46875 91.226562 92.203125 C 90.925781 91.925781 90.621094 91.644531 90.3125 91.359375 C 90.003906 91.074219 89.691406 90.789062 89.382812 90.484375 C 89.078125 90.175781 88.769531 89.867188 88.460938 89.554688 C 87.820312 88.941406 87.230469 88.253906 86.605469 87.578125 C 86.292969 87.242188 86 86.875 85.699219 86.519531 C 85.402344 86.15625 85.085938 85.800781 84.800781 85.421875 C 84.511719 85.042969 84.21875 84.664062 83.925781 84.285156 C 83.636719 83.898438 83.367188 83.496094 83.082031 83.097656 C 81.976562 81.496094 80.949219 79.792969 80.0625 78 C 79.195312 76.210938 78.449219 74.34375 77.90625 72.441406 C 77.757812 71.96875 77.652344 71.488281 77.53125 71.015625 L 77.445312 70.660156 L 77.425781 70.570312 L 77.410156 70.492188 L 77.402344 70.449219 L 77.367188 70.273438 C 77.328125 70.042969 77.28125 69.8125 77.238281 69.585938 C 77.199219 69.355469 77.152344 69.148438 77.117188 68.890625 C 77.085938 68.644531 77.054688 68.398438 77.023438 68.160156 C 76.992188 67.914062 76.953125 67.667969 76.9375 67.429688 C 76.921875 67.191406 76.902344 66.953125 76.886719 66.71875 C 76.761719 64.835938 76.851562 63.003906 77.089844 61.304688 C 77.328125 59.597656 77.75 58.023438 78.230469 56.617188 C 78.695312 55.203125 79.289062 53.972656 79.839844 52.910156 C 79.984375 52.648438 80.128906 52.398438 80.265625 52.152344 C 80.402344 51.910156 80.535156 51.675781 80.683594 51.460938 C 80.972656 51.03125 81.210938 50.625 81.46875 50.285156 C 81.71875 49.9375 81.941406 49.628906 82.144531 49.371094 C 82.355469 49.109375 82.539062 48.898438 82.683594 48.722656 C 82.953125 48.410156 83.109375 48.222656 83.132812 48.195312 C 83.121094 48.21875 83.011719 48.4375 82.8125 48.8125 C 82.710938 49.015625 82.578125 49.257812 82.429688 49.546875 C 82.292969 49.847656 82.132812 50.1875 81.945312 50.558594 C 81.597656 51.320312 81.214844 52.261719 80.824219 53.347656 C 80.457031 54.4375 80.058594 55.675781 79.78125 57.054688 C 79.746094 57.222656 79.707031 57.394531 79.667969 57.570312 C 79.640625 57.746094 79.605469 57.925781 79.574219 58.105469 C 79.519531 58.464844 79.4375 58.824219 79.402344 59.203125 C 79.355469 59.574219 79.308594 59.953125 79.261719 60.339844 C 79.234375 60.726562 79.207031 61.117188 79.175781 61.511719 C 79.089844 63.105469 79.132812 64.777344 79.34375 66.488281 C 79.371094 66.699219 79.398438 66.914062 79.425781 67.132812 C 79.457031 67.34375 79.496094 67.550781 79.535156 67.761719 C 79.570312 67.96875 79.605469 68.175781 79.644531 68.390625 C 79.65625 68.492188 79.679688 68.601562 79.707031 68.714844 L 79.789062 69.054688 C 79.839844 69.28125 79.894531 69.507812 79.945312 69.734375 L 79.984375 69.910156 L 79.996094 69.953125 L 79.996094 69.972656 L 80 69.976562 L 80.019531 70.039062 L 80.113281 70.359375 C 80.234375 70.792969 80.34375 71.234375 80.496094 71.660156 C 81.046875 73.390625 81.738281 75.105469 82.5625 76.769531 C 83.367188 78.445312 84.328125 80.046875 85.324219 81.59375 C 85.578125 81.976562 85.824219 82.363281 86.085938 82.738281 C 86.351562 83.113281 86.613281 83.484375 86.871094 83.855469 C 87.125 84.230469 87.414062 84.578125 87.679688 84.9375 C 87.957031 85.289062 88.210938 85.65625 88.492188 85.996094 C 89.050781 86.679688 89.585938 87.367188 90.152344 88.011719 C 90.425781 88.335938 90.699219 88.65625 90.96875 88.976562 C 91.25 89.285156 91.527344 89.589844 91.800781 89.898438 C 92.074219 90.199219 92.34375 90.496094 92.605469 90.792969 C 92.878906 91.078125 93.148438 91.359375 93.410156 91.636719 C 93.671875 91.914062 93.933594 92.191406 94.183594 92.460938 C 94.449219 92.726562 94.707031 92.988281 94.964844 93.246094 C 95.21875 93.503906 95.464844 93.753906 95.710938 94 C 95.828125 94.117188 95.945312 94.242188 96.0625 94.355469 C 96.183594 94.472656 96.296875 94.589844 96.417969 94.707031 C 96.882812 95.164062 97.332031 95.597656 97.75 96 C 98.59375 96.8125 99.332031 97.519531 99.949219 98.09375 C 101.195312 99.238281 101.902344 99.890625 101.902344 99.890625 C 101.902344 99.890625 101.691406 99.777344 101.300781 99.550781 Z M 129.667969 53.265625 C 119.898438 43.496094 111.183594 39.40625 103.96875 38.226562 C 99.472656 37.492188 94.949219 37.941406 90.769531 39.421875 C 86.59375 40.898438 82.761719 43.386719 79.660156 46.722656 C 73.457031 53.390625 70.828125 62.71875 72.9375 71.589844 C 74.628906 78.710938 79.328125 87.121094 89.761719 96.167969 C 94.761719 100.507812 99.640625 103.863281 104.292969 106.445312 C 105.167969 104.390625 106.179688 102.421875 107.3125 100.558594 L 107.316406 100.550781 L 107.320312 100.546875 C 109.429688 97.113281 111.980469 93.894531 114.894531 90.984375 L 114.910156 90.964844 C 117.710938 88.210938 120.945312 85.691406 124.53125 83.484375 C 127.832031 81.4375 131.566406 79.722656 135.640625 78.386719 C 137.355469 77.816406 139.21875 77.324219 141.507812 76.835938 L 141.542969 76.828125 L 141.582031 76.820312 C 143.132812 76.523438 144.585938 76.300781 145.972656 76.15625 C 142.742188 69.050781 137.636719 61.234375 129.667969 53.265625 " fill-opacity="1" fill-rule="nonzero"/></g><g fill="#0071bc" fill-opacity="0.4"><g transform="translate(39.568053, 274.362346)"><g><path d="M 14.71875 -36.484375 L 0.265625 -36.484375 L 0.265625 -47.046875 L 42.40625 -47.046875 L 42.40625 -36.484375 L 28.03125 -36.484375 L 28.03125 0 L 14.71875 0 Z M 14.71875 -36.484375 "/></g></g></g><g fill="#0071bc" fill-opacity="0.4"><g transform="translate(78.940517, 274.362346)"><g><path d="M 27.828125 -37.03125 C 32.347656 -37.03125 35.984375 -35.6875 38.734375 -33 C 41.492188 -30.3125 42.875 -26.253906 42.875 -20.828125 L 42.875 0 L 30.109375 0 L 30.109375 -18.75 C 30.109375 -23.71875 28.113281 -26.203125 24.125 -26.203125 C 21.925781 -26.203125 20.164062 -25.484375 18.84375 -24.046875 C 17.53125 -22.617188 16.875 -20.472656 16.875 -17.609375 L 16.875 0 L 4.09375 0 L 4.09375 -49.859375 L 16.875 -49.859375 L 16.875 -33.0625 C 18.257812 -34.363281 19.890625 -35.347656 21.765625 -36.015625 C 23.648438 -36.691406 25.671875 -37.03125 27.828125 -37.03125 Z M 27.828125 -37.03125 "/></g></g></g><g fill="#0071bc" fill-opacity="0.4"><g transform="translate(122.411556, 274.362346)"><g><path d="M 41.328125 -18.140625 C 41.328125 -18.054688 41.257812 -17.003906 41.125 -14.984375 L 14.65625 -14.984375 C 15.1875 -13.097656 16.222656 -11.648438 17.765625 -10.640625 C 19.316406 -9.640625 21.257812 -9.140625 23.59375 -9.140625 C 25.332031 -9.140625 26.84375 -9.382812 28.125 -9.875 C 29.40625 -10.375 30.691406 -11.179688 31.984375 -12.296875 L 38.703125 -5.3125 C 35.171875 -1.363281 30 0.609375 23.1875 0.609375 C 18.925781 0.609375 15.179688 -0.195312 11.953125 -1.8125 C 8.734375 -3.425781 6.238281 -5.664062 4.46875 -8.53125 C 2.695312 -11.394531 1.8125 -14.644531 1.8125 -18.28125 C 1.8125 -21.863281 2.671875 -25.078125 4.390625 -27.921875 C 6.117188 -30.765625 8.503906 -32.992188 11.546875 -34.609375 C 14.597656 -36.222656 18.03125 -37.03125 21.84375 -37.03125 C 25.46875 -37.03125 28.757812 -36.28125 31.71875 -34.78125 C 34.675781 -33.28125 37.015625 -31.101562 38.734375 -28.25 C 40.460938 -25.40625 41.328125 -22.035156 41.328125 -18.140625 Z M 21.90625 -27.953125 C 19.9375 -27.953125 18.289062 -27.390625 16.96875 -26.265625 C 15.644531 -25.148438 14.804688 -23.628906 14.453125 -21.703125 L 29.375 -21.703125 C 29.007812 -23.628906 28.164062 -25.148438 26.84375 -26.265625 C 25.519531 -27.390625 23.875 -27.953125 21.90625 -27.953125 Z M 21.90625 -27.953125 "/></g></g></g><g fill="#0071bc" fill-opacity="0.4"><g transform="translate(162.254344, 274.362346)"><g/></g></g><g fill="#0071bc" fill-opacity="0.4"><g transform="translate(178.513485, 274.362346)"><g><path d="M 28.15625 0.9375 C 23.226562 0.9375 18.800781 -0.101562 14.875 -2.1875 C 10.957031 -4.269531 7.878906 -7.171875 5.640625 -10.890625 C 3.398438 -14.609375 2.28125 -18.816406 2.28125 -23.515625 C 2.28125 -28.222656 3.398438 -32.4375 5.640625 -36.15625 C 7.878906 -39.875 10.957031 -42.773438 14.875 -44.859375 C 18.800781 -46.941406 23.226562 -47.984375 28.15625 -47.984375 C 32.457031 -47.984375 36.332031 -47.21875 39.78125 -45.6875 C 43.226562 -44.164062 46.097656 -41.972656 48.390625 -39.109375 L 39.921875 -31.453125 C 36.867188 -35.128906 33.171875 -36.96875 28.828125 -36.96875 C 26.273438 -36.96875 24 -36.40625 22 -35.28125 C 20.007812 -34.15625 18.460938 -32.570312 17.359375 -30.53125 C 16.265625 -28.5 15.71875 -26.160156 15.71875 -23.515625 C 15.71875 -20.878906 16.265625 -18.539062 17.359375 -16.5 C 18.460938 -14.457031 20.007812 -12.875 22 -11.75 C 24 -10.632812 26.273438 -10.078125 28.828125 -10.078125 C 33.171875 -10.078125 36.867188 -11.914062 39.921875 -15.59375 L 48.390625 -7.9375 C 46.097656 -5.0625 43.226562 -2.863281 39.78125 -1.34375 C 36.332031 0.175781 32.457031 0.9375 28.15625 0.9375 Z M 28.15625 0.9375 "/></g></g></g><g fill="#0071bc" fill-opacity="0.4"><g transform="translate(224.806494, 274.362346)"><g><path d="M 27.828125 -37.03125 C 32.347656 -37.03125 35.984375 -35.6875 38.734375 -33 C 41.492188 -30.3125 42.875 -26.253906 42.875 -20.828125 L 42.875 0 L 30.109375 0 L 30.109375 -18.75 C 30.109375 -23.71875 28.113281 -26.203125 24.125 -26.203125 C 21.925781 -26.203125 20.164062 -25.484375 18.84375 -24.046875 C 17.53125 -22.617188 16.875 -20.472656 16.875 -17.609375 L 16.875 0 L 4.09375 0 L 4.09375 -49.859375 L 16.875 -49.859375 L 16.875 -33.0625 C 18.257812 -34.363281 19.890625 -35.347656 21.765625 -36.015625 C 23.648438 -36.691406 25.671875 -37.03125 27.828125 -37.03125 Z M 27.828125 -37.03125 "/></g></g></g><g fill="#0071bc" fill-opacity="0.4"><g transform="translate(268.277533, 274.362346)"><g><path d="M 41.328125 -18.140625 C 41.328125 -18.054688 41.257812 -17.003906 41.125 -14.984375 L 14.65625 -14.984375 C 15.1875 -13.097656 16.222656 -11.648438 17.765625 -10.640625 C 19.316406 -9.640625 21.257812 -9.140625 23.59375 -9.140625 C 25.332031 -9.140625 26.84375 -9.382812 28.125 -9.875 C 29.40625 -10.375 30.691406 -11.179688 31.984375 -12.296875 L 38.703125 -5.3125 C 35.171875 -1.363281 30 0.609375 23.1875 0.609375 C 18.925781 0.609375 15.179688 -0.195312 11.953125 -1.8125 C 8.734375 -3.425781 6.238281 -5.664062 4.46875 -8.53125 C 2.695312 -11.394531 1.8125 -14.644531 1.8125 -18.28125 C 1.8125 -21.863281 2.671875 -25.078125 4.390625 -27.921875 C 6.117188 -30.765625 8.503906 -32.992188 11.546875 -34.609375 C 14.597656 -36.222656 18.03125 -37.03125 21.84375 -37.03125 C 25.46875 -37.03125 28.757812 -36.28125 31.71875 -34.78125 C 34.675781 -33.28125 37.015625 -31.101562 38.734375 -28.25 C 40.460938 -25.40625 41.328125 -22.035156 41.328125 -18.140625 Z M 21.90625 -27.953125 C 19.9375 -27.953125 18.289062 -27.390625 16.96875 -26.265625 C 15.644531 -25.148438 14.804688 -23.628906 14.453125 -21.703125 L 29.375 -21.703125 C 29.007812 -23.628906 28.164062 -25.148438 26.84375 -26.265625 C 25.519531 -27.390625 23.875 -27.953125 21.90625 -27.953125 Z M 21.90625 -27.953125 "/></g></g></g><g fill="#0071bc" fill-opacity="0.4"><g transform="translate(308.120321, 274.362346)"><g><path d="M 18.015625 -35.078125 L 26.671875 -35.078125 L 26.671875 -25.53125 L 18.34375 -25.53125 L 18.34375 0 L 5.578125 0 L 5.578125 -25.53125 L 0.265625 -25.53125 L 0.265625 -35.078125 L 5.578125 -35.078125 L 5.578125 -36.015625 C 5.578125 -40.453125 6.910156 -43.96875 9.578125 -46.5625 C 12.242188 -49.164062 15.972656 -50.46875 20.765625 -50.46875 C 22.378906 -50.46875 23.945312 -50.3125 25.46875 -50 C 26.988281 -49.6875 28.242188 -49.21875 29.234375 -48.59375 L 26.078125 -39.578125 C 24.816406 -40.296875 23.539062 -40.65625 22.25 -40.65625 C 20.90625 -40.65625 19.863281 -40.25 19.125 -39.4375 C 18.382812 -38.632812 18.015625 -37.453125 18.015625 -35.890625 Z M 18.015625 -35.078125 "/></g></g></g><g fill="#373737" fill-opacity="1"><g transform="translate(39.568053, 274.362346)"><g><path d="M 14.71875 -36.484375 L 0.265625 -36.484375 L 0.265625 -47.046875 L 42.40625 -47.046875 L 42.40625 -36.484375 L 28.03125 -36.484375 L 28.03125 0 L 14.71875 0 Z M 14.71875 -36.484375 "/></g></g></g><g fill="#373737" fill-opacity="1"><g transform="translate(78.940517, 274.362346)"><g><path d="M 27.828125 -37.03125 C 32.347656 -37.03125 35.984375 -35.6875 38.734375 -33 C 41.492188 -30.3125 42.875 -26.253906 42.875 -20.828125 L 42.875 0 L 30.109375 0 L 30.109375 -18.75 C 30.109375 -23.71875 28.113281 -26.203125 24.125 -26.203125 C 21.925781 -26.203125 20.164062 -25.484375 18.84375 -24.046875 C 17.53125 -22.617188 16.875 -20.472656 16.875 -17.609375 L 16.875 0 L 4.09375 0 L 4.09375 -49.859375 L 16.875 -49.859375 L 16.875 -33.0625 C 18.257812 -34.363281 19.890625 -35.347656 21.765625 -36.015625 C 23.648438 -36.691406 25.671875 -37.03125 27.828125 -37.03125 Z M 27.828125 -37.03125 "/></g></g></g><g fill="#373737" fill-opacity="1"><g transform="translate(122.411556, 274.362346)"><g><path d="M 41.328125 -18.140625 C 41.328125 -18.054688 41.257812 -17.003906 41.125 -14.984375 L 14.65625 -14.984375 C 15.1875 -13.097656 16.222656 -11.648438 17.765625 -10.640625 C 19.316406 -9.640625 21.257812 -9.140625 23.59375 -9.140625 C 25.332031 -9.140625 26.84375 -9.382812 28.125 -9.875 C 29.40625 -10.375 30.691406 -11.179688 31.984375 -12.296875 L 38.703125 -5.3125 C 35.171875 -1.363281 30 0.609375 23.1875 0.609375 C 18.925781 0.609375 15.179688 -0.195312 11.953125 -1.8125 C 8.734375 -3.425781 6.238281 -5.664062 4.46875 -8.53125 C 2.695312 -11.394531 1.8125 -14.644531 1.8125 -18.28125 C 1.8125 -21.863281 2.671875 -25.078125 4.390625 -27.921875 C 6.117188 -30.765625 8.503906 -32.992188 11.546875 -34.609375 C 14.597656 -36.222656 18.03125 -37.03125 21.84375 -37.03125 C 25.46875 -37.03125 28.757812 -36.28125 31.71875 -34.78125 C 34.675781 -33.28125 37.015625 -31.101562 38.734375 -28.25 C 40.460938 -25.40625 41.328125 -22.035156 41.328125 -18.140625 Z M 21.90625 -27.953125 C 19.9375 -27.953125 18.289062 -27.390625 16.96875 -26.265625 C 15.644531 -25.148438 14.804688 -23.628906 14.453125 -21.703125 L 29.375 -21.703125 C 29.007812 -23.628906 28.164062 -25.148438 26.84375 -26.265625 C 25.519531 -27.390625 23.875 -27.953125 21.90625 -27.953125 Z M 21.90625 -27.953125 "/></g></g></g><g fill="#373737" fill-opacity="1"><g transform="translate(162.254344, 274.362346)"><g/></g></g><g fill="#373737" fill-opacity="1"><g transform="translate(178.513485, 274.362346)"><g><path d="M 28.15625 0.9375 C 23.226562 0.9375 18.800781 -0.101562 14.875 -2.1875 C 10.957031 -4.269531 7.878906 -7.171875 5.640625 -10.890625 C 3.398438 -14.609375 2.28125 -18.816406 2.28125 -23.515625 C 2.28125 -28.222656 3.398438 -32.4375 5.640625 -36.15625 C 7.878906 -39.875 10.957031 -42.773438 14.875 -44.859375 C 18.800781 -46.941406 23.226562 -47.984375 28.15625 -47.984375 C 32.457031 -47.984375 36.332031 -47.21875 39.78125 -45.6875 C 43.226562 -44.164062 46.097656 -41.972656 48.390625 -39.109375 L 39.921875 -31.453125 C 36.867188 -35.128906 33.171875 -36.96875 28.828125 -36.96875 C 26.273438 -36.96875 24 -36.40625 22 -35.28125 C 20.007812 -34.15625 18.460938 -32.570312 17.359375 -30.53125 C 16.265625 -28.5 15.71875 -26.160156 15.71875 -23.515625 C 15.71875 -20.878906 16.265625 -18.539062 17.359375 -16.5 C 18.460938 -14.457031 20.007812 -12.875 22 -11.75 C 24 -10.632812 26.273438 -10.078125 28.828125 -10.078125 C 33.171875 -10.078125 36.867188 -11.914062 39.921875 -15.59375 L 48.390625 -7.9375 C 46.097656 -5.0625 43.226562 -2.863281 39.78125 -1.34375 C 36.332031 0.175781 32.457031 0.9375 28.15625 0.9375 Z M 28.15625 0.9375 "/></g></g></g><g fill="#373737" fill-opacity="1"><g transform="translate(224.806494, 274.362346)"><g><path d="M 27.828125 -37.03125 C 32.347656 -37.03125 35.984375 -35.6875 38.734375 -33 C 41.492188 -30.3125 42.875 -26.253906 42.875 -20.828125 L 42.875 0 L 30.109375 0 L 30.109375 -18.75 C 30.109375 -23.71875 28.113281 -26.203125 24.125 -26.203125 C 21.925781 -26.203125 20.164062 -25.484375 18.84375 -24.046875 C 17.53125 -22.617188 16.875 -20.472656 16.875 -17.609375 L 16.875 0 L 4.09375 0 L 4.09375 -49.859375 L 16.875 -49.859375 L 16.875 -33.0625 C 18.257812 -34.363281 19.890625 -35.347656 21.765625 -36.015625 C 23.648438 -36.691406 25.671875 -37.03125 27.828125 -37.03125 Z M 27.828125 -37.03125 "/></g></g></g><g fill="#373737" fill-opacity="1"><g transform="translate(268.277533, 274.362346)"><g><path d="M 41.328125 -18.140625 C 41.328125 -18.054688 41.257812 -17.003906 41.125 -14.984375 L 14.65625 -14.984375 C 15.1875 -13.097656 16.222656 -11.648438 17.765625 -10.640625 C 19.316406 -9.640625 21.257812 -9.140625 23.59375 -9.140625 C 25.332031 -9.140625 26.84375 -9.382812 28.125 -9.875 C 29.40625 -10.375 30.691406 -11.179688 31.984375 -12.296875 L 38.703125 -5.3125 C 35.171875 -1.363281 30 0.609375 23.1875 0.609375 C 18.925781 0.609375 15.179688 -0.195312 11.953125 -1.8125 C 8.734375 -3.425781 6.238281 -5.664062 4.46875 -8.53125 C 2.695312 -11.394531 1.8125 -14.644531 1.8125 -18.28125 C 1.8125 -21.863281 2.671875 -25.078125 4.390625 -27.921875 C 6.117188 -30.765625 8.503906 -32.992188 11.546875 -34.609375 C 14.597656 -36.222656 18.03125 -37.03125 21.84375 -37.03125 C 25.46875 -37.03125 28.757812 -36.28125 31.71875 -34.78125 C 34.675781 -33.28125 37.015625 -31.101562 38.734375 -28.25 C 40.460938 -25.40625 41.328125 -22.035156 41.328125 -18.140625 Z M 21.90625 -27.953125 C 19.9375 -27.953125 18.289062 -27.390625 16.96875 -26.265625 C 15.644531 -25.148438 14.804688 -23.628906 14.453125 -21.703125 L 29.375 -21.703125 C 29.007812 -23.628906 28.164062 -25.148438 26.84375 -26.265625 C 25.519531 -27.390625 23.875 -27.953125 21.90625 -27.953125 Z M 21.90625 -27.953125 "/></g></g></g><g fill="#373737" fill-opacity="1"><g transform="translate(308.120321, 274.362346)"><g><path d="M 18.015625 -35.078125 L 26.671875 -35.078125 L 26.671875 -25.53125 L 18.34375 -25.53125 L 18.34375 0 L 5.578125 0 L 5.578125 -25.53125 L 0.265625 -25.53125 L 0.265625 -35.078125 L 5.578125 -35.078125 L 5.578125 -36.015625 C 5.578125 -40.453125 6.910156 -43.96875 9.578125 -46.5625 C 12.242188 -49.164062 15.972656 -50.46875 20.765625 -50.46875 C 22.378906 -50.46875 23.945312 -50.3125 25.46875 -50 C 26.988281 -49.6875 28.242188 -49.21875 29.234375 -48.59375 L 26.078125 -39.578125 C 24.816406 -40.296875 23.539062 -40.65625 22.25 -40.65625 C 20.90625 -40.65625 19.863281 -40.25 19.125 -39.4375 C 18.382812 -38.632812 18.015625 -37.453125 18.015625 -35.890625 Z M 18.015625 -35.078125 "/></g></g></g><g fill="#373737" fill-opacity="1"><g transform="translate(121.526588, 292.88943)"><g><path d="M 7.90625 0 L 5.234375 -4.203125 C 5.148438 -4.191406 5.019531 -4.1875 4.84375 -4.1875 L 3.171875 -4.1875 L 3.171875 0 L 1.640625 0 L 1.640625 -11.390625 L 4.671875 -11.390625 C 5.453125 -11.390625 6.144531 -11.25 6.75 -10.96875 C 7.363281 -10.695312 7.84375 -10.296875 8.1875 -9.765625 C 8.53125 -9.242188 8.703125 -8.609375 8.703125 -7.859375 C 8.703125 -7.148438 8.546875 -6.503906 8.234375 -5.921875 C 7.929688 -5.335938 7.457031 -4.890625 6.8125 -4.578125 L 9.6875 0 Z M 4.8125 -5.671875 C 5.632812 -5.671875 6.226562 -5.882812 6.59375 -6.3125 C 6.957031 -6.75 7.140625 -7.242188 7.140625 -7.796875 C 7.140625 -8.128906 7.0625 -8.457031 6.90625 -8.78125 C 6.75 -9.113281 6.503906 -9.382812 6.171875 -9.59375 C 5.847656 -9.8125 5.4375 -9.921875 4.9375 -9.921875 L 3.171875 -9.921875 L 3.171875 -5.671875 Z M 4.8125 -5.671875 "/></g></g></g><g fill="#373737" fill-opacity="1"><g transform="translate(134.872193, 292.88943)"><g><path d="M 9.046875 -11.390625 L 9.046875 -9.921875 L 3.171875 -9.921875 L 3.171875 -6.453125 L 8.40625 -6.453125 L 8.40625 -5 L 3.171875 -5 L 3.171875 -1.484375 L 9.265625 -1.484375 L 9.265625 0 L 1.640625 0 L 1.640625 -11.390625 Z M 9.046875 -11.390625 "/></g></g></g><g fill="#373737" fill-opacity="1"><g transform="translate(148.107657, 292.88943)"><g><path d="M 7.53125 -9.359375 C 7.125 -9.578125 6.6875 -9.753906 6.21875 -9.890625 C 5.757812 -10.023438 5.320312 -10.09375 4.90625 -10.09375 C 4.289062 -10.09375 3.800781 -9.953125 3.4375 -9.671875 C 3.070312 -9.398438 2.890625 -9.019531 2.890625 -8.53125 C 2.890625 -8.0625 3.101562 -7.675781 3.53125 -7.375 C 3.957031 -7.082031 4.566406 -6.785156 5.359375 -6.484375 C 5.941406 -6.273438 6.4375 -6.046875 6.84375 -5.796875 C 7.25 -5.554688 7.582031 -5.21875 7.84375 -4.78125 C 8.113281 -4.34375 8.25 -3.789062 8.25 -3.125 C 8.25 -2.507812 8.097656 -1.953125 7.796875 -1.453125 C 7.492188 -0.960938 7.0625 -0.578125 6.5 -0.296875 C 5.9375 -0.015625 5.273438 0.125 4.515625 0.125 C 3.816406 0.125 3.140625 0.015625 2.484375 -0.203125 C 1.835938 -0.429688 1.265625 -0.722656 0.765625 -1.078125 L 1.453125 -2.28125 C 1.835938 -1.988281 2.300781 -1.738281 2.84375 -1.53125 C 3.394531 -1.332031 3.90625 -1.234375 4.375 -1.234375 C 4.988281 -1.234375 5.519531 -1.390625 5.96875 -1.703125 C 6.425781 -2.015625 6.65625 -2.484375 6.65625 -3.109375 C 6.65625 -3.628906 6.460938 -4.039062 6.078125 -4.34375 C 5.703125 -4.65625 5.164062 -4.953125 4.46875 -5.234375 C 3.832031 -5.472656 3.300781 -5.707031 2.875 -5.9375 C 2.445312 -6.164062 2.082031 -6.484375 1.78125 -6.890625 C 1.476562 -7.296875 1.328125 -7.800781 1.328125 -8.40625 C 1.328125 -9.300781 1.640625 -10.023438 2.265625 -10.578125 C 2.890625 -11.128906 3.695312 -11.421875 4.6875 -11.453125 C 5.914062 -11.453125 7.054688 -11.144531 8.109375 -10.53125 Z M 7.53125 -9.359375 "/></g></g></g><g fill="#373737" fill-opacity="1"><g transform="translate(160.225908, 292.88943)"><g><path d="M 8.359375 -11.390625 L 8.359375 -9.921875 L 5.3125 -9.921875 L 5.3125 0 L 3.78125 0 L 3.78125 -9.921875 L 0.796875 -9.921875 L 0.796875 -11.390625 Z M 8.359375 -11.390625 "/></g></g></g><g fill="#373737" fill-opacity="1"><g transform="translate(172.34416, 292.88943)"><g><path d="M 7.609375 -3 L 3.234375 -3 L 2.015625 0 L 0.5 0 L 5.484375 -11.859375 L 5.578125 -11.859375 L 10.546875 0 L 8.78125 0 Z M 7.09375 -4.3125 L 5.46875 -8.46875 L 3.78125 -4.3125 Z M 7.09375 -4.3125 "/></g></g></g><g fill="#373737" fill-opacity="1"><g transform="translate(186.334911, 292.88943)"><g><path d="M 3.03125 -4.03125 C 3.03125 -3.53125 3.148438 -3.078125 3.390625 -2.671875 C 3.628906 -2.265625 3.957031 -1.941406 4.375 -1.703125 C 4.789062 -1.472656 5.25 -1.359375 5.75 -1.359375 C 6.269531 -1.359375 6.742188 -1.472656 7.171875 -1.703125 C 7.597656 -1.929688 7.929688 -2.25 8.171875 -2.65625 C 8.410156 -3.070312 8.53125 -3.53125 8.53125 -4.03125 L 8.53125 -11.390625 L 10.03125 -11.390625 L 10.03125 -3.984375 C 10.03125 -3.171875 9.84375 -2.453125 9.46875 -1.828125 C 9.09375 -1.203125 8.578125 -0.71875 7.921875 -0.375 C 7.273438 -0.0390625 6.550781 0.125 5.75 0.125 C 4.957031 0.125 4.234375 -0.0390625 3.578125 -0.375 C 2.929688 -0.71875 2.421875 -1.203125 2.046875 -1.828125 C 1.679688 -2.453125 1.5 -3.171875 1.5 -3.984375 L 1.5 -11.390625 L 3.03125 -11.390625 Z M 3.03125 -4.03125 "/></g></g></g><g fill="#373737" fill-opacity="1"><g transform="translate(200.813454, 292.88943)"><g><path d="M 7.90625 0 L 5.234375 -4.203125 C 5.148438 -4.191406 5.019531 -4.1875 4.84375 -4.1875 L 3.171875 -4.1875 L 3.171875 0 L 1.640625 0 L 1.640625 -11.390625 L 4.671875 -11.390625 C 5.453125 -11.390625 6.144531 -11.25 6.75 -10.96875 C 7.363281 -10.695312 7.84375 -10.296875 8.1875 -9.765625 C 8.53125 -9.242188 8.703125 -8.609375 8.703125 -7.859375 C 8.703125 -7.148438 8.546875 -6.503906 8.234375 -5.921875 C 7.929688 -5.335938 7.457031 -4.890625 6.8125 -4.578125 L 9.6875 0 Z M 4.8125 -5.671875 C 5.632812 -5.671875 6.226562 -5.882812 6.59375 -6.3125 C 6.957031 -6.75 7.140625 -7.242188 7.140625 -7.796875 C 7.140625 -8.128906 7.0625 -8.457031 6.90625 -8.78125 C 6.75 -9.113281 6.503906 -9.382812 6.171875 -9.59375 C 5.847656 -9.8125 5.4375 -9.921875 4.9375 -9.921875 L 3.171875 -9.921875 L 3.171875 -5.671875 Z M 4.8125 -5.671875 "/></g></g></g><g fill="#373737" fill-opacity="1"><g transform="translate(214.159063, 292.88943)"><g><path d="M 7.609375 -3 L 3.234375 -3 L 2.015625 0 L 0.5 0 L 5.484375 -11.859375 L 5.578125 -11.859375 L 10.546875 0 L 8.78125 0 Z M 7.09375 -4.3125 L 5.46875 -8.46875 L 3.78125 -4.3125 Z M 7.09375 -4.3125 "/></g></g></g><g fill="#373737" fill-opacity="1"><g transform="translate(228.149814, 292.88943)"><g><path d="M 11.5625 -11.390625 L 11.5625 0.375 L 11.515625 0.375 L 3.15625 -8.109375 L 3.1875 0 L 1.640625 0 L 1.640625 -11.734375 L 1.71875 -11.734375 L 10.0625 -3.15625 L 10.03125 -11.390625 Z M 11.5625 -11.390625 "/></g></g></g><g fill="#373737" fill-opacity="1"><g transform="translate(244.296291, 292.88943)"><g><path d="M 8.359375 -11.390625 L 8.359375 -9.921875 L 5.3125 -9.921875 L 5.3125 0 L 3.78125 0 L 3.78125 -9.921875 L 0.796875 -9.921875 L 0.796875 -11.390625 Z M 8.359375 -11.390625 "/></g></g></g></svg>